<svg xmlns="http://www.w3.org/2000/svg" viewBox="0 0 720 460" width="720" height="460" role="img" aria-label="revenue donut"><rect x="0" y="0" width="720" height="460" fill="#ffffff"/>
<text x="20.00" y="30.00" text-anchor="start" font-family="Helvetica,Arial,sans-serif" font-size="15" font-weight="700" fill="#1f2933">三星电子 营收按业务分部 (FY2024 사업보고서口径, 抵销前)</text>
<path d="M 288.00,107.20 A 132 132 0 1 1 262.61,368.74 L 273.00,315.74 A 78 78 0 1 0 288.00,161.20 Z" fill="#2563eb"/>
<path d="M 262.61,368.74 A 132 132 0 0 1 190.64,150.07 L 230.47,186.53 A 78 78 0 0 0 273.00,315.74 Z" fill="#15803d"/>
<path d="M 190.64,150.07 A 132 132 0 0 1 252.45,112.08 L 266.99,164.08 A 78 78 0 0 0 230.47,186.53 Z" fill="#d97706"/>
<path d="M 252.45,112.08 A 132 132 0 0 1 288.00,107.20 L 288.00,161.20 A 78 78 0 0 0 266.99,164.08 Z" fill="#7c3aed"/>
<text x="288.00" y="235.20" text-anchor="middle" font-family="Helvetica,Arial,sans-serif" font-size="18" font-weight="800" fill="#1f2933">Samsung</text>
<text x="288.00" y="255.20" text-anchor="middle" font-family="Helvetica,Arial,sans-serif" font-size="13" font-weight="600" fill="#52606d">₩tn330</text>
<text x="288.00" y="271.20" text-anchor="middle" font-family="Helvetica,Arial,sans-serif" font-size="10" font-weight="400" fill="#8a97a3">total</text>
<line x1="425.35" y1="252.53" x2="441.35" y2="252.53" stroke="#2563eb" stroke-width="1.4"/>
<text x="445.35" y="250.53" text-anchor="start" font-family="Helvetica,Arial,sans-serif" font-size="11" font-weight="700" fill="#1f2933">DX 设备体验</text>
<text x="445.35" y="264.53" text-anchor="start" font-family="Helvetica,Arial,sans-serif" font-size="10" font-weight="400" fill="#52606d">₩tn175  (53.1%)</text>
<line x1="156.92" y1="282.34" x2="140.92" y2="282.34" stroke="#15803d" stroke-width="1.4"/>
<text x="136.92" y="280.34" text-anchor="end" font-family="Helvetica,Arial,sans-serif" font-size="11" font-weight="700" fill="#1f2933">DS 半导体</text>
<text x="136.92" y="294.34" text-anchor="end" font-family="Helvetica,Arial,sans-serif" font-size="10" font-weight="400" fill="#52606d">₩tn111  (33.7%)</text>
<line x1="215.74" y1="121.63" x2="199.74" y2="121.63" stroke="#d97706" stroke-width="1.4"/>
<text x="195.74" y="119.63" text-anchor="end" font-family="Helvetica,Arial,sans-serif" font-size="11" font-weight="700" fill="#1f2933">SDC 三星显示</text>
<text x="195.74" y="133.63" text-anchor="end" font-family="Helvetica,Arial,sans-serif" font-size="10" font-weight="400" fill="#52606d">₩tn29  (8.9%)</text>
<line x1="269.24" y1="102.48" x2="253.24" y2="102.48" stroke="#7c3aed" stroke-width="1.4"/>
<text x="249.24" y="100.48" text-anchor="end" font-family="Helvetica,Arial,sans-serif" font-size="11" font-weight="700" fill="#1f2933">Harman</text>
<text x="249.24" y="114.48" text-anchor="end" font-family="Helvetica,Arial,sans-serif" font-size="10" font-weight="400" fill="#52606d">₩tn14  (4.3%)</text>
<text x="360.00" y="444.00" text-anchor="middle" font-family="Helvetica,Arial,sans-serif" font-size="10" font-weight="400" fill="#52606d">Source: Samsung Electronics 2024 Business Report (4Q Interim) 第22页 'A. Revenue'(抵销前分部毛额)</text>
</svg>
