<svg xmlns="http://www.w3.org/2000/svg" viewBox="0 0 1000 560" width="1000" height="560" role="img" aria-label="income statement Sankey"><rect x="0" y="0" width="1000" height="560" fill="#ffffff"/>
<text x="20.00" y="30.00" text-anchor="start" font-family="Helvetica,Arial,sans-serif" font-size="15" font-weight="700" fill="#1f2933">寒武纪如何赚钱 / How Cambricon Makes Money — FY2025 (RMB mn)</text>
<path d="M 204.00,77.63 C 258.00,77.63 258.00,85.00 312.00,85.00 L 312.00,491.74 C 258.00,491.74 258.00,484.37 204.00,484.37 Z" fill="#93c5fd" fill-opacity="0.55"/>
<path d="M 452.00,78.00 C 506.00,78.00 506.00,169.50 560.00,169.50 L 560.00,298.92 C 506.00,298.92 506.00,207.43 452.00,207.43 Z" fill="#86efac" fill-opacity="0.55"/>
<path d="M 452.00,207.43 C 506.00,207.43 506.00,312.92 560.00,312.92 L 560.00,408.50 C 506.00,408.50 506.00,303.01 452.00,303.01 Z" fill="#fca5a5" fill-opacity="0.55"/>
<path d="M 328.00,85.00 C 382.00,85.00 382.00,78.00 436.00,78.00 L 436.00,303.01 C 382.00,303.01 382.00,310.01 328.00,310.01 Z" fill="#86efac" fill-opacity="0.55"/>
<path d="M 328.00,310.01 C 382.00,310.01 382.00,317.01 436.00,317.01 L 436.00,500.00 C 382.00,500.00 382.00,493.00 328.00,493.00 Z" fill="#fca5a5" fill-opacity="0.55"/>
<path d="M 700.00,155.56 C 754.00,155.56 754.00,216.35 808.00,216.35 L 808.00,345.65 C 754.00,345.65 754.00,284.86 700.00,284.86 Z" fill="#86efac" fill-opacity="0.55"/>
<path d="M 700.00,284.86 C 754.00,284.86 754.00,359.65 808.00,359.65 L 808.00,361.65 C 754.00,361.65 754.00,286.86 700.00,286.86 Z" fill="#fca5a5" fill-opacity="0.55"/>
<path d="M 576.00,169.50 C 630.00,169.50 630.00,155.56 684.00,155.56 L 684.00,284.99 C 630.00,284.99 630.00,298.92 576.00,298.92 Z" fill="#86efac" fill-opacity="0.55"/>
<path d="M 576.00,312.92 C 630.00,312.92 630.00,298.86 684.00,298.86 L 684.00,311.17 C 630.00,311.17 630.00,325.23 576.00,325.23 Z" fill="#fca5a5" fill-opacity="0.55"/>
<path d="M 576.00,325.23 C 630.00,325.23 630.00,325.17 684.00,325.17 L 684.00,364.10 C 630.00,364.10 630.00,364.17 576.00,364.17 Z" fill="#fca5a5" fill-opacity="0.55"/>
<path d="M 576.00,364.17 C 630.00,364.17 630.00,378.10 684.00,378.10 L 684.00,422.44 C 630.00,422.44 630.00,408.50 576.00,408.50 Z" fill="#fca5a5" fill-opacity="0.55"/>
<path d="M 204.00,498.37 C 258.00,498.37 258.00,491.74 312.00,491.74 L 312.00,493.74 C 258.00,493.74 258.00,500.37 204.00,500.37 Z" fill="#93c5fd" fill-opacity="0.55"/>
<rect x="188.00" y="77.63" width="16" height="406.74" rx="1.5" fill="#2563eb"/>
<rect x="188.00" y="498.37" width="16" height="2.00" rx="1.5" fill="#2563eb"/>
<rect x="312.00" y="85.00" width="16" height="408.00" rx="1.5" fill="#1e3a8a"/>
<rect x="436.00" y="78.00" width="16" height="225.01" rx="1.5" fill="#15803d"/>
<rect x="436.00" y="317.01" width="16" height="182.99" rx="1.5" fill="#dc2626"/>
<rect x="560.00" y="169.50" width="16" height="129.43" rx="1.5" fill="#15803d"/>
<rect x="560.00" y="312.92" width="16" height="95.58" rx="1.5" fill="#dc2626"/>
<rect x="684.00" y="155.56" width="16" height="129.30" rx="1.5" fill="#15803d"/>
<rect x="684.00" y="298.86" width="16" height="12.31" rx="1.5" fill="#dc2626"/>
<rect x="684.00" y="325.17" width="16" height="38.93" rx="1.5" fill="#dc2626"/>
<rect x="684.00" y="378.10" width="16" height="44.34" rx="1.5" fill="#dc2626"/>
<rect x="808.00" y="216.35" width="16" height="129.30" rx="1.5" fill="#15803d"/>
<rect x="808.00" y="359.65" width="16" height="2.00" rx="1.5" fill="#dc2626"/>
<line x1="188.00" y1="281.00" x2="182.00" y2="268.63" stroke="#cbd5e1" stroke-width="1"/>
<text x="179.00" y="271.63" text-anchor="end" font-family="Helvetica,Arial,sans-serif" font-size="11.5" font-weight="700" fill="#1f2933">云端产品线 Cloud</text>
<text x="179.00" y="284.63" text-anchor="end" font-family="Helvetica,Arial,sans-serif" font-size="10" font-weight="400" fill="#52606d">RMB6.5B  (99.7%)</text>
<line x1="188.00" y1="499.37" x2="182.00" y2="487.00" stroke="#cbd5e1" stroke-width="1"/>
<text x="179.00" y="490.00" text-anchor="end" font-family="Helvetica,Arial,sans-serif" font-size="11.5" font-weight="700" fill="#1f2933">边缘+IP+其他 Edge/IP/Other</text>
<text x="179.00" y="503.00" text-anchor="end" font-family="Helvetica,Arial,sans-serif" font-size="10" font-weight="400" fill="#52606d">RMB20.0M  (0.31%)</text>
<rect x="331.00" y="67.00" width="113.10" height="26" rx="2" fill="#ffffff" fill-opacity="0.72"/>
<text x="334.00" y="79.00" text-anchor="start" font-family="Helvetica,Arial,sans-serif" font-size="11.5" font-weight="700" fill="#1f2933">Revenue</text>
<text x="334.00" y="92.00" text-anchor="start" font-family="Helvetica,Arial,sans-serif" font-size="10" font-weight="400" fill="#52606d">RMB6.5B  (100.0%)</text>
<rect x="455.00" y="60.00" width="106.80" height="26" rx="2" fill="#ffffff" fill-opacity="0.72"/>
<text x="458.00" y="72.00" text-anchor="start" font-family="Helvetica,Arial,sans-serif" font-size="11.5" font-weight="700" fill="#1f2933">Gross Profit</text>
<text x="458.00" y="85.00" text-anchor="start" font-family="Helvetica,Arial,sans-serif" font-size="10" font-weight="400" fill="#52606d">RMB3.6B  (55.1%)</text>
<rect x="455.00" y="299.01" width="144.60" height="26" rx="2" fill="#ffffff" fill-opacity="0.72"/>
<text x="458.00" y="311.01" text-anchor="start" font-family="Helvetica,Arial,sans-serif" font-size="11.5" font-weight="700" fill="#1f2933">Cost of Revenue (COGS)</text>
<text x="458.00" y="324.01" text-anchor="start" font-family="Helvetica,Arial,sans-serif" font-size="10" font-weight="400" fill="#52606d">RMB2.9B  (44.9%)</text>
<rect x="579.00" y="151.50" width="106.80" height="26" rx="2" fill="#ffffff" fill-opacity="0.72"/>
<text x="582.00" y="163.50" text-anchor="start" font-family="Helvetica,Arial,sans-serif" font-size="11.5" font-weight="700" fill="#1f2933">Operating Income</text>
<text x="582.00" y="176.50" text-anchor="start" font-family="Helvetica,Arial,sans-serif" font-size="10" font-weight="400" fill="#52606d">RMB2.1B  (31.7%)</text>
<rect x="579.00" y="294.92" width="150.90" height="26" rx="2" fill="#ffffff" fill-opacity="0.72"/>
<text x="582.00" y="306.92" text-anchor="start" font-family="Helvetica,Arial,sans-serif" font-size="11.5" font-weight="700" fill="#1f2933">Total Operating Expense</text>
<text x="582.00" y="319.92" text-anchor="start" font-family="Helvetica,Arial,sans-serif" font-size="10" font-weight="400" fill="#52606d">RMB1.5B  (23.4%)</text>
<rect x="703.00" y="137.56" width="106.80" height="26" rx="2" fill="#ffffff" fill-opacity="0.72"/>
<text x="706.00" y="149.56" text-anchor="start" font-family="Helvetica,Arial,sans-serif" font-size="11.5" font-weight="700" fill="#1f2933">Pretax Income</text>
<text x="706.00" y="162.56" text-anchor="start" font-family="Helvetica,Arial,sans-serif" font-size="10" font-weight="400" fill="#52606d">RMB2.1B  (31.7%)</text>
<rect x="703.00" y="280.86" width="113.10" height="26" rx="2" fill="#ffffff" fill-opacity="0.72"/>
<text x="706.00" y="292.86" text-anchor="start" font-family="Helvetica,Arial,sans-serif" font-size="11.5" font-weight="700" fill="#1f2933">SG&amp;A</text>
<text x="706.00" y="305.86" text-anchor="start" font-family="Helvetica,Arial,sans-serif" font-size="10" font-weight="400" fill="#52606d">RMB196.0M  (3.0%)</text>
<rect x="703.00" y="307.17" width="113.10" height="26" rx="2" fill="#ffffff" fill-opacity="0.72"/>
<text x="706.00" y="319.17" text-anchor="start" font-family="Helvetica,Arial,sans-serif" font-size="11.5" font-weight="700" fill="#1f2933">R&amp;D</text>
<text x="706.00" y="332.17" text-anchor="start" font-family="Helvetica,Arial,sans-serif" font-size="10" font-weight="400" fill="#52606d">RMB620.0M  (9.5%)</text>
<rect x="703.00" y="360.10" width="119.40" height="26" rx="2" fill="#ffffff" fill-opacity="0.72"/>
<text x="706.00" y="372.10" text-anchor="start" font-family="Helvetica,Arial,sans-serif" font-size="11.5" font-weight="700" fill="#1f2933">Other OpEx</text>
<text x="706.00" y="385.10" text-anchor="start" font-family="Helvetica,Arial,sans-serif" font-size="10" font-weight="400" fill="#52606d">RMB706.0M  (10.9%)</text>
<text x="833.00" y="278.00" text-anchor="start" font-family="Helvetica,Arial,sans-serif" font-size="11.5" font-weight="700" fill="#1f2933">Net Income</text>
<text x="833.00" y="291.00" text-anchor="start" font-family="Helvetica,Arial,sans-serif" font-size="10" font-weight="400" fill="#52606d">RMB2.1B  (31.7%)</text>
<text x="833.00" y="357.65" text-anchor="start" font-family="Helvetica,Arial,sans-serif" font-size="11.5" font-weight="700" fill="#1f2933">Income Tax</text>
<text x="833.00" y="370.65" text-anchor="start" font-family="Helvetica,Arial,sans-serif" font-size="10" font-weight="400" fill="#52606d">RMB1.0M  (0.02%)</text>
<text x="500.00" y="544.00" text-anchor="middle" font-family="Helvetica,Arial,sans-serif" font-size="10" font-weight="400" fill="#52606d">Source: 寒武纪 2025 年年度报告，合并利润表 + 主营业务分产品（第 27 页）</text>
</svg>
