<svg xmlns="http://www.w3.org/2000/svg" viewBox="0 0 720 460" width="720" height="460" role="img" aria-label="revenue donut"><rect x="0" y="0" width="720" height="460" fill="#ffffff"/>
<text x="20.00" y="30.00" text-anchor="start" font-family="Helvetica,Arial,sans-serif" font-size="15" font-weight="700" fill="#1f2933">Vale FY2025 收入按地域 / Revenue by Geography (US$ mn)</text>
<path d="M 288.00,107.20 A 132 132 0 0 1 291.53,371.15 L 290.09,317.17 A 78 78 0 0 0 288.00,161.20 Z" fill="#2563eb"/>
<path d="M 291.53,371.15 A 132 132 0 0 1 280.08,107.44 L 283.32,161.34 A 78 78 0 0 0 290.09,317.17 Z" fill="#15803d"/>
<path d="M 280.08,107.44 A 132 132 0 0 1 288.00,107.20 L 288.00,161.20 A 78 78 0 0 0 283.32,161.34 Z" fill="#d97706"/>
<text x="288.00" y="235.20" text-anchor="middle" font-family="Helvetica,Arial,sans-serif" font-size="18" font-weight="800" fill="#1f2933">VALE</text>
<text x="288.00" y="255.20" text-anchor="middle" font-family="Helvetica,Arial,sans-serif" font-size="13" font-weight="600" fill="#52606d">US$38.4B</text>
<text x="288.00" y="271.20" text-anchor="middle" font-family="Helvetica,Arial,sans-serif" font-size="10" font-weight="400" fill="#8a97a3">total</text>
<line x1="425.99" y1="237.35" x2="441.99" y2="237.35" stroke="#2563eb" stroke-width="1.4"/>
<text x="445.99" y="235.35" text-anchor="start" font-family="Helvetica,Arial,sans-serif" font-size="11" font-weight="700" fill="#1f2933">China Mainland</text>
<text x="445.99" y="249.35" text-anchor="start" font-family="Helvetica,Arial,sans-serif" font-size="10" font-weight="400" fill="#52606d">US$19.0B  (49.6%)</text>
<line x1="150.13" y1="245.19" x2="134.13" y2="245.19" stroke="#15803d" stroke-width="1.4"/>
<text x="130.13" y="243.19" text-anchor="end" font-family="Helvetica,Arial,sans-serif" font-size="11" font-weight="700" fill="#1f2933">Rest of world (Japan/Korea/EU/MENA/SEA/Brazil)</text>
<text x="130.13" y="257.19" text-anchor="end" font-family="Helvetica,Arial,sans-serif" font-size="10" font-weight="400" fill="#52606d">US$19.0B  (49.5%)</text>
<line x1="283.86" y1="101.26" x2="267.86" y2="101.26" stroke="#d97706" stroke-width="1.4"/>
<text x="263.86" y="99.26" text-anchor="end" font-family="Helvetica,Arial,sans-serif" font-size="11" font-weight="700" fill="#1f2933">Taiwan</text>
<text x="263.86" y="113.26" text-anchor="end" font-family="Helvetica,Arial,sans-serif" font-size="10" font-weight="400" fill="#52606d">US$367.0M  (1.0%)</text>
<text x="360.00" y="444.00" text-anchor="middle" font-family="Helvetica,Arial,sans-serif" font-size="10" font-weight="400" fill="#52606d">Source: Vale 2025 20-F (FY2025, US$ mn) · SEC EDGAR (Note 3 — revenue by geography)</text>
</svg>
