<svg xmlns="http://www.w3.org/2000/svg" viewBox="0 0 720 460" width="720" height="460" role="img" aria-label="revenue donut"><rect x="0" y="0" width="720" height="460" fill="#ffffff"/>
<text x="20.00" y="30.00" text-anchor="start" font-family="Helvetica,Arial,sans-serif" font-size="15" font-weight="700" fill="#1f2933">Air Products FY2025 分部收入 (按报告分部)</text>
<path d="M 288.00,107.20 A 132 132 0 0 1 347.31,357.13 L 323.05,308.88 A 78 78 0 0 0 288.00,161.20 Z" fill="#2563eb"/>
<path d="M 347.31,357.13 A 132 132 0 0 1 163.10,281.90 L 214.19,264.43 A 78 78 0 0 0 323.05,308.88 Z" fill="#15803d"/>
<path d="M 163.10,281.90 A 132 132 0 0 1 243.69,114.86 L 261.81,165.73 A 78 78 0 0 0 214.19,264.43 Z" fill="#d97706"/>
<path d="M 243.69,114.86 A 132 132 0 0 1 252.61,112.03 L 267.09,164.06 A 78 78 0 0 0 261.81,165.73 Z" fill="#7c3aed"/>
<path d="M 252.61,112.03 A 132 132 0 0 1 288.00,107.20 L 288.00,161.20 A 78 78 0 0 0 267.09,164.06 Z" fill="#dc2626"/>
<text x="288.00" y="235.20" text-anchor="middle" font-family="Helvetica,Arial,sans-serif" font-size="18" font-weight="800" fill="#1f2933">APD</text>
<text x="288.00" y="255.20" text-anchor="middle" font-family="Helvetica,Arial,sans-serif" font-size="13" font-weight="600" fill="#52606d">\$12.0B</text>
<text x="288.00" y="271.20" text-anchor="middle" font-family="Helvetica,Arial,sans-serif" font-size="10" font-weight="400" fill="#8a97a3">total</text>
<line x1="422.27" y1="207.34" x2="438.27" y2="207.34" stroke="#2563eb" stroke-width="1.4"/>
<text x="442.27" y="205.34" text-anchor="start" font-family="Helvetica,Arial,sans-serif" font-size="11" font-weight="700" fill="#1f2933">Americas</text>
<text x="442.27" y="219.34" text-anchor="start" font-family="Helvetica,Arial,sans-serif" font-size="10" font-weight="400" fill="#52606d">\$5.1B  (42.6%)</text>
<line x1="235.83" y1="366.96" x2="219.83" y2="366.96" stroke="#15803d" stroke-width="1.4"/>
<text x="215.83" y="364.96" text-anchor="end" font-family="Helvetica,Arial,sans-serif" font-size="11" font-weight="700" fill="#1f2933">Asia</text>
<text x="215.83" y="378.96" text-anchor="end" font-family="Helvetica,Arial,sans-serif" font-size="10" font-weight="400" fill="#52606d">\$3.3B  (27.2%)</text>
<line x1="163.71" y1="179.24" x2="147.71" y2="179.24" stroke="#d97706" stroke-width="1.4"/>
<text x="143.71" y="177.24" text-anchor="end" font-family="Helvetica,Arial,sans-serif" font-size="11" font-weight="700" fill="#1f2933">Europe</text>
<text x="143.71" y="191.24" text-anchor="end" font-family="Helvetica,Arial,sans-serif" font-size="10" font-weight="400" fill="#52606d">\$3.0B  (24.8%)</text>
<line x1="246.31" y1="107.65" x2="230.31" y2="107.65" stroke="#7c3aed" stroke-width="1.4"/>
<text x="226.31" y="105.65" text-anchor="end" font-family="Helvetica,Arial,sans-serif" font-size="11" font-weight="700" fill="#1f2933">Middle East &amp; India</text>
<text x="226.31" y="119.65" text-anchor="end" font-family="Helvetica,Arial,sans-serif" font-size="10" font-weight="400" fill="#52606d">\$135.9M  (1.1%)</text>
<line x1="269.33" y1="102.47" x2="253.33" y2="102.47" stroke="#dc2626" stroke-width="1.4"/>
<text x="249.33" y="100.47" text-anchor="end" font-family="Helvetica,Arial,sans-serif" font-size="11" font-weight="700" fill="#1f2933">Corporate &amp; other</text>
<text x="249.33" y="114.47" text-anchor="end" font-family="Helvetica,Arial,sans-serif" font-size="10" font-weight="400" fill="#52606d">\$520.0M  (4.3%)</text>
<text x="360.00" y="444.00" text-anchor="middle" font-family="Helvetica,Arial,sans-serif" font-size="10" font-weight="400" fill="#52606d">Source: APD FY2025 10-K, Note Segment &amp; Geographic Information — Business Segment Information (FY2025)</text>
</svg>
