<svg xmlns="http://www.w3.org/2000/svg" viewBox="0 0 720 460" width="720" height="460" role="img" aria-label="revenue donut"><rect x="0" y="0" width="720" height="460" fill="#ffffff"/>
<text x="20.00" y="30.00" text-anchor="start" font-family="Helvetica,Arial,sans-serif" font-size="15" font-weight="700" fill="#1f2933">FY2025 收入按地理 Revenue by Geography（合并收入口径）</text>
<path d="M 288.00,107.20 A 132 132 0 1 1 236.10,117.83 L 257.33,167.48 A 78 78 0 1 0 288.00,161.20 Z" fill="#2563eb"/>
<path d="M 236.10,117.83 A 132 132 0 0 1 288.00,107.20 L 288.00,161.20 A 78 78 0 0 0 257.33,167.48 Z" fill="#15803d"/>
<text x="288.00" y="235.20" text-anchor="middle" font-family="Helvetica,Arial,sans-serif" font-size="18" font-weight="800" fill="#1f2933">CRWV</text>
<text x="288.00" y="255.20" text-anchor="middle" font-family="Helvetica,Arial,sans-serif" font-size="13" font-weight="600" fill="#52606d">$5.1B</text>
<text x="288.00" y="271.20" text-anchor="middle" font-family="Helvetica,Arial,sans-serif" font-size="10" font-weight="400" fill="#8a97a3">total</text>
<line x1="315.69" y1="374.39" x2="331.69" y2="374.39" stroke="#2563eb" stroke-width="1.4"/>
<text x="335.69" y="372.39" text-anchor="start" font-family="Helvetica,Arial,sans-serif" font-size="11" font-weight="700" fill="#1f2933">United States</text>
<text x="335.69" y="386.39" text-anchor="start" font-family="Helvetica,Arial,sans-serif" font-size="10" font-weight="400" fill="#52606d">$4.8B  (93.6%)</text>
<line x1="260.31" y1="104.01" x2="244.31" y2="104.01" stroke="#15803d" stroke-width="1.4"/>
<text x="240.31" y="102.01" text-anchor="end" font-family="Helvetica,Arial,sans-serif" font-size="11" font-weight="700" fill="#1f2933">Other countries</text>
<text x="240.31" y="116.01" text-anchor="end" font-family="Helvetica,Arial,sans-serif" font-size="10" font-weight="400" fill="#52606d">$330.0M  (6.4%)</text>
<text x="360.00" y="444.00" text-anchor="middle" font-family="Helvetica,Arial,sans-serif" font-size="10" font-weight="400" fill="#52606d">Source: CRWV FY2025 10-K (filed 2026-03-02), Note 17 — Geographic Information</text>
</svg>
