<svg xmlns="http://www.w3.org/2000/svg" viewBox="0 0 720 460" width="720" height="460" role="img" aria-label="revenue donut"><rect x="0" y="0" width="720" height="460" fill="#ffffff"/>
<text x="20.00" y="30.00" text-anchor="start" font-family="Helvetica,Arial,sans-serif" font-size="15" font-weight="700" fill="#1f2933">FY2025 主营收入 — 按地区（实体清单致境外≈0）</text>
<path d="M 288.00,107.20 A 132 132 0 1 1 286.95,107.20 L 287.38,161.20 A 78 78 0 1 0 288.00,161.20 Z" fill="#2563eb"/>
<path d="M 286.95,107.20 A 132 132 0 0 1 288.00,107.20 L 288.00,161.20 A 78 78 0 0 0 287.38,161.20 Z" fill="#15803d"/>
<text x="288.00" y="235.20" text-anchor="middle" font-family="Helvetica,Arial,sans-serif" font-size="18" font-weight="800" fill="#1f2933">摩尔线程</text>
<text x="288.00" y="255.20" text-anchor="middle" font-family="Helvetica,Arial,sans-serif" font-size="13" font-weight="600" fill="#52606d">¥1.5B</text>
<text x="288.00" y="271.20" text-anchor="middle" font-family="Helvetica,Arial,sans-serif" font-size="10" font-weight="400" fill="#8a97a3">total</text>
<line x1="288.55" y1="377.20" x2="304.55" y2="377.20" stroke="#2563eb" stroke-width="1.4"/>
<text x="308.55" y="375.20" text-anchor="start" font-family="Helvetica,Arial,sans-serif" font-size="11" font-weight="700" fill="#1f2933">境内 Domestic</text>
<text x="308.55" y="389.20" text-anchor="start" font-family="Helvetica,Arial,sans-serif" font-size="10" font-weight="400" fill="#52606d">¥1.5B  (99.9%)</text>
<line x1="287.45" y1="101.20" x2="271.45" y2="101.20" stroke="#15803d" stroke-width="1.4"/>
<text x="267.45" y="99.20" text-anchor="end" font-family="Helvetica,Arial,sans-serif" font-size="11" font-weight="700" fill="#1f2933">境外 Overseas</text>
<text x="267.45" y="113.20" text-anchor="end" font-family="Helvetica,Arial,sans-serif" font-size="10" font-weight="400" fill="#52606d">¥1.9M  (0.1%)</text>
<text x="360.00" y="444.00" text-anchor="middle" font-family="Helvetica,Arial,sans-serif" font-size="10" font-weight="400" fill="#52606d">Source: 摩尔线程 2025 年年度报告 主营业务分地区 第 36 页</text>
</svg>
